REM DIRINDEX 1\2,1\3
REM DIRNAME folder01,folder02,folder03
TITLE ""
FILE "Disk2Track27.mp3" MP3
  TRACK 01 AUDIO
    TITLE "2:cjc052_0713"
    INDEX 01 00:00:00
  TRACK 02 AUDIO
    TITLE "2:cjc052_0714"
    INDEX 01 00:11:19
  TRACK 03 AUDIO
    TITLE "2:cjc052_0715"
    INDEX 01 00:16:46
  TRACK 04 AUDIO
    TITLE "0:"
    INDEX 01 00:33:28
